# xmcd
#
# Track frame offsets:
#	150
#	12514
#	24843
#	36787
#	46797
#	59410
#	70325
#	81198
#	93656
#	106087
#	119381
#	131736
#	144420
#	157178
#	169845
#	182050
#	194706
#	207236
#	219818
#	232112
#
# Disc length: 3266 seconds
# Revision: 0
# Processed by: cddbd v1.5.2PL0 Copyright (c) Steve Scherf et al.
# Submitted via: dBpowerAMP V12.0
#
DISCID=1f0cc014
DTITLE=Hank Williams - 60 Essential Recordings - Disc 1
DYEAR=1949
DGENRE=Classic Country
TTITLE0=Lovesick Blues
TTITLE1=Cold Cold Heart
TTITLE2=Long Gone Lonesome Blues
TTITLE3=Honky Tonk Blues
TTITLE4=Im So Lonesome I Could Cry
TTITLE5=My Buckets Got A Hole In It
TTITLE6=Howlin At The Moon
TTITLE7=Youre Gonna Change
TTITLE8=I Just Dont Like This Kind Of Livin
TTITLE9=Theyll Never Take Her Love From Me
TTITLE10=Why Should We Try Anymore
TTITLE11=My Heart Would Know
TTITLE12=Ramblin Man
TTITLE13=Id Still Want You
TTITLE14=I Heard That Lonesome Whistle
TTITLE15=Baby Were Really In Love
TTITLE16=I Wont Be Home No More
TTITLE17=Please Dont Let Me Love You
TTITLE18=Im Satisfied With You
TTITLE19=Weary Blues From Waitin
EXTD=
EXTT0=
EXTT1=
EXTT2=
EXTT3=
EXTT4=
EXTT5=
EXTT6=
EXTT7=
EXTT8=
EXTT9=
EXTT10=
EXTT11=
EXTT12=
EXTT13=
EXTT14=
EXTT15=
EXTT16=
EXTT17=
EXTT18=
EXTT19=
PLAYORDER=
